<svg width="30" height="30" viewBox="0 0 30 30" fill="none" xmlns="http://www.w3.org/2000/svg">
<g filter="url(#filter0_i_357_138)">
<path d="M15 17.5V20C13.0109 20 11.1032 20.7902 9.6967 22.1967C8.29018 23.6032 7.5 25.5109 7.5 27.5H5C5 24.8478 6.05357 22.3043 7.92893 20.4289C9.8043 18.5536 12.3478 17.5 15 17.5ZM15 16.25C10.8562 16.25 7.5 12.8938 7.5 8.75C7.5 4.60625 10.8562 1.25 15 1.25C19.1438 1.25 22.5 4.60625 22.5 8.75C22.5 12.8938 19.1438 16.25 15 16.25ZM15 13.75C17.7625 13.75 20 11.5125 20 8.75C20 5.9875 17.7625 3.75 15 3.75C12.2375 3.75 10 5.9875 10 8.75C10 11.5125 12.2375 13.75 15 13.75ZM26.25 21.25H27.5V27.5H17.5V21.25H18.75V20C18.75 19.0054 19.1451 18.0516 19.8483 17.3483C20.5516 16.6451 21.5054 16.25 22.5 16.25C23.4946 16.25 24.4484 16.6451 25.1517 17.3483C25.8549 18.0516 26.25 19.0054 26.25 20V21.25ZM23.75 21.25V20C23.75 19.6685 23.6183 19.3505 23.3839 19.1161C23.1495 18.8817 22.8315 18.75 22.5 18.75C22.1685 18.75 21.8505 18.8817 21.6161 19.1161C21.3817 19.3505 21.25 19.6685 21.25 20V21.25H23.75Z" fill="url(#paint0_linear_357_138)"/>
</g>
<defs>
<filter id="filter0_i_357_138" x="0" y="0" width="30" height="34" filterUnits="userSpaceOnUse" color-interpolation-filters="sRGB">
<feFlood flood-opacity="0" result="BackgroundImageFix"/>
<feBlend mode="normal" in="SourceGraphic" in2="BackgroundImageFix" result="shape"/>
<feColorMatrix in="SourceAlpha" type="matrix" values="0 0 0 0 0 0 0 0 0 0 0 0 0 0 0 0 0 0 127 0" result="hardAlpha"/>
<feOffset dy="4"/>
<feGaussianBlur stdDeviation="2"/>
<feComposite in2="hardAlpha" operator="arithmetic" k2="-1" k3="1"/>
<feColorMatrix type="matrix" values="0 0 0 0 0 0 0 0 0 0 0 0 0 0 0 0 0 0 0.25 0"/>
<feBlend mode="normal" in2="shape" result="effect1_innerShadow_357_138"/>
</filter>
<linearGradient id="paint0_linear_357_138" x1="5" y1="14.375" x2="27.5" y2="14.375" gradientUnits="userSpaceOnUse">
<stop stop-color="#FD9F8A"/>
<stop offset="1" stop-color="#DBC3DF"/>
</linearGradient>
</defs>
</svg>
