<svg width="20" height="20" viewBox="0 0 20 20" fill="none" xmlns="http://www.w3.org/2000/svg">
<g clip-path="url(#clip0_169_222)">
<path d="M16.219 1.94315C16.872 2.45515 17.322 3.28215 17.506 4.14815C17.5283 4.1552 17.55 4.16389 17.571 4.17415L19.616 5.12015C19.7303 5.17263 19.8272 5.25674 19.8952 5.36253C19.9633 5.46831 19.9996 5.59137 20 5.71715V18.0841C19.9993 18.1869 19.9747 18.288 19.9284 18.3797C19.882 18.4714 19.815 18.551 19.7326 18.6125C19.6503 18.6739 19.5548 18.7154 19.4537 18.7337C19.3526 18.7521 19.2487 18.7467 19.15 18.7181L13.481 17.1181L6.741 18.9761C6.61939 19.0095 6.49086 19.0082 6.37 18.9721L0.474 17.2171C0.337721 17.1771 0.21799 17.0942 0.132595 16.9807C0.047201 16.8672 0.00069966 16.7292 0 16.5871L0 3.99815C0 3.55815 0.428 3.24215 0.855 3.36615L6.557 5.02715L9.455 4.14015C9.49488 4.12837 9.5357 4.12001 9.577 4.11515C9.689 3.45915 10.002 2.82915 10.527 2.21515C11.15 1.48515 12.243 1.05715 13.308 1.00615C14.413 0.953146 15.257 1.18915 16.218 1.94215M1.333 4.88115V16.0961L6.203 17.5451V6.29815L1.333 4.88115ZM9.542 5.49515L7.536 6.10815V17.3871L12.601 15.9931V12.6981C12.601 12.3341 12.9 12.0391 13.268 12.0391C13.636 12.0391 13.934 12.3341 13.934 12.6991V15.8761L18.667 17.2111V6.13615L17.547 5.61615C17.528 5.72615 17.504 5.83415 17.474 5.93915C17.2565 6.7059 16.8917 7.42294 16.4 8.05015L13.923 11.1431C13.8578 11.2245 13.7745 11.2895 13.6797 11.3329C13.585 11.3764 13.4814 11.3972 13.3772 11.3936C13.273 11.39 13.1711 11.3621 13.0796 11.3122C12.9881 11.2623 12.9095 11.1918 12.85 11.1061L10.535 7.75315C10.153 7.21915 9.885 6.74315 9.734 6.31715C9.63922 6.05126 9.57481 5.77551 9.542 5.49515ZM13.372 2.32415C12.646 2.35915 11.9 2.65115 11.545 3.06615C11.118 3.56615 10.908 4.03415 10.866 4.50815C10.816 5.07915 10.85 5.48215 10.992 5.88115C11.097 6.17615 11.306 6.55015 11.629 7.00115L13.44 9.62315L15.35 7.23815C15.7353 6.7457 16.021 6.18287 16.191 5.58115C16.431 4.74115 16.069 3.50715 15.391 2.97715C14.696 2.43215 14.171 2.28515 13.373 2.32415M13.511 3.02115C14.615 3.02115 15.511 3.90615 15.511 4.99815C15.5096 5.2593 15.4567 5.51761 15.3554 5.75832C15.2541 5.99903 15.1063 6.21742 14.9206 6.40102C14.7349 6.58461 14.5148 6.72981 14.2729 6.82832C14.0311 6.92684 13.7722 6.97673 13.511 6.97515C12.407 6.97515 11.511 6.09015 11.511 4.99815C11.511 3.90615 12.407 3.02115 13.511 3.02115ZM13.511 4.33915C13.4239 4.33862 13.3376 4.35525 13.257 4.38808C13.1763 4.42091 13.103 4.46931 13.041 4.5305C12.9791 4.5917 12.9298 4.66449 12.896 4.74473C12.8622 4.82497 12.8445 4.91108 12.844 4.99815C12.844 5.36215 13.143 5.65715 13.511 5.65715C13.5981 5.65754 13.6844 5.64078 13.7649 5.60783C13.8455 5.57487 13.9188 5.52637 13.9807 5.46508C14.0425 5.40379 14.0917 5.33093 14.1254 5.25064C14.1591 5.17035 14.1766 5.08421 14.177 4.99715C14.1757 4.82166 14.1048 4.65385 13.98 4.5305C13.8551 4.40716 13.6865 4.33835 13.511 4.33915Z" fill="black"/>
</g>
<defs>
<clipPath id="clip0_169_222">
<rect width="20" height="20" fill="white"/>
</clipPath>
</defs>
</svg>
