<svg width="30" height="30" viewBox="0 0 30 30" fill="none" xmlns="http://www.w3.org/2000/svg">
<g filter="url(#filter0_i_304_689)">
<path fill-rule="evenodd" clip-rule="evenodd" d="M10.5225 4.0625C10.8725 3.325 11.6275 2.8125 12.5 2.8125H17.5C18.3725 2.8125 19.1263 3.325 19.4775 4.0625C20.3313 4.07 20.9975 4.10875 21.5925 4.34125C22.3028 4.61909 22.9205 5.09126 23.375 5.70375C23.8338 6.32125 24.05 7.1125 24.345 8.20125L25.2725 11.6038L25.6225 12.655L25.6525 12.6925C26.7788 14.135 26.2425 16.28 25.17 20.5688C24.4875 23.2975 24.1475 24.6612 23.13 25.4562C22.1125 26.25 20.7063 26.25 17.8938 26.25H12.1063C9.29376 26.25 7.88751 26.25 6.87001 25.4562C5.85251 24.6612 5.51126 23.2975 4.83001 20.5688C3.75751 16.28 3.22126 14.135 4.34751 12.6925L4.37751 12.655L4.72751 11.6038L5.65501 8.20125C5.95126 7.1125 6.16751 6.32 6.62501 5.7025C7.07967 5.09048 7.69738 4.61875 8.40751 4.34125C9.00251 4.10875 9.66751 4.06875 10.5225 4.0625ZM10.525 5.94125C9.69751 5.95 9.36501 5.98125 9.09001 6.08875C8.70747 6.23835 8.37477 6.49264 8.13001 6.8225C7.91001 7.11875 7.78001 7.5325 7.41751 8.86625L6.70501 11.4775C7.98001 11.25 9.72251 11.25 12.105 11.25H17.8938C20.2775 11.25 22.0188 11.25 23.2938 11.475L22.5825 8.86375C22.22 7.53 22.09 7.11625 21.87 6.82C21.6252 6.49014 21.2926 6.23585 20.91 6.08625C20.635 5.97875 20.3025 5.9475 19.475 5.93875C19.2975 6.31231 19.0178 6.6279 18.6682 6.84892C18.3186 7.06995 17.9136 7.18734 17.5 7.1875H12.5C12.0866 7.18746 11.6816 7.07024 11.332 6.84945C10.9825 6.62866 10.7027 6.31457 10.525 5.94125Z" fill="url(#paint0_linear_304_689)"/>
</g>
<defs>
<filter id="filter0_i_304_689" x="0" y="0" width="30" height="34" filterUnits="userSpaceOnUse" color-interpolation-filters="sRGB">
<feFlood flood-opacity="0" result="BackgroundImageFix"/>
<feBlend mode="normal" in="SourceGraphic" in2="BackgroundImageFix" result="shape"/>
<feColorMatrix in="SourceAlpha" type="matrix" values="0 0 0 0 0 0 0 0 0 0 0 0 0 0 0 0 0 0 127 0" result="hardAlpha"/>
<feOffset dy="4"/>
<feGaussianBlur stdDeviation="2"/>
<feComposite in2="hardAlpha" operator="arithmetic" k2="-1" k3="1"/>
<feColorMatrix type="matrix" values="0 0 0 0 0 0 0 0 0 0 0 0 0 0 0 0 0 0 0.25 0"/>
<feBlend mode="normal" in2="shape" result="effect1_innerShadow_304_689"/>
</filter>
<linearGradient id="paint0_linear_304_689" x1="3.72159" y1="14.5312" x2="26.2784" y2="14.5312" gradientUnits="userSpaceOnUse">
<stop stop-color="#4822DE"/>
<stop offset="1" stop-color="#94FF9E"/>
</linearGradient>
</defs>
</svg>
