<svg width="280" height="65" viewBox="0 0 280 65" fill="none" xmlns="http://www.w3.org/2000/svg">
<rect x="0.5" y="0.5" width="279" height="64" stroke="url(#paint0_linear_357_135)"/>
<path d="M16.1831 43L21.6191 17.44H32.5991C33.9431 17.44 35.0831 17.788 36.0191 18.484C36.9791 19.18 37.6991 20.08 38.1791 21.184C38.6831 22.264 38.9351 23.416 38.9351 24.64C38.9351 25.528 38.8031 26.404 38.5391 27.268C38.2751 28.132 37.8911 28.96 37.3871 29.752C36.8831 30.544 36.2831 31.264 35.5871 31.912C34.9151 32.536 34.1711 33.064 33.3551 33.496L36.6311 43H29.9711L27.1631 34.756H23.8151L22.0871 43H16.1831ZM29.8271 29.608C30.1631 29.608 30.5111 29.5 30.8711 29.284C31.2311 29.044 31.5551 28.732 31.8431 28.348C32.1551 27.94 32.3951 27.472 32.5631 26.944C32.7551 26.416 32.8511 25.852 32.8511 25.252C32.8511 24.724 32.7671 24.268 32.5991 23.884C32.4551 23.476 32.2511 23.164 31.9871 22.948C31.7231 22.732 31.4351 22.624 31.1231 22.624H26.4071L24.9311 29.608H29.8271ZM47.102 43.36C45.47 43.36 44.054 43.024 42.854 42.352C41.678 41.68 40.766 40.744 40.118 39.544C39.494 38.32 39.182 36.928 39.182 35.368C39.182 33.76 39.494 32.26 40.118 30.868C40.742 29.476 41.606 28.252 42.71 27.196C43.814 26.116 45.098 25.276 46.562 24.676C48.05 24.052 49.646 23.74 51.35 23.74C52.79 23.74 54.026 23.956 55.058 24.388C56.114 24.796 56.918 25.408 57.47 26.224C58.046 27.016 58.334 27.988 58.334 29.14C58.334 31.18 57.386 32.74 55.49 33.82C53.618 34.876 50.822 35.404 47.102 35.404C46.382 35.404 45.59 35.392 44.726 35.368C43.886 35.32 43.01 35.248 42.098 35.152L42.818 31.624C43.586 31.696 44.318 31.756 45.014 31.804C45.71 31.828 46.406 31.84 47.102 31.84C48.518 31.84 49.634 31.768 50.45 31.624C51.29 31.456 51.89 31.204 52.25 30.868C52.61 30.532 52.79 30.124 52.79 29.644C52.79 29.26 52.682 28.948 52.466 28.708C52.274 28.444 51.998 28.24 51.638 28.096C51.302 27.952 50.894 27.88 50.414 27.88C49.622 27.88 48.89 28.084 48.218 28.492C47.546 28.9 46.958 29.464 46.454 30.184C45.974 30.904 45.59 31.732 45.302 32.668C45.038 33.58 44.906 34.564 44.906 35.62C44.906 36.364 45.014 37.012 45.23 37.564C45.446 38.092 45.794 38.5 46.274 38.788C46.778 39.076 47.402 39.22 48.146 39.22C49.01 39.22 49.802 39.016 50.522 38.608C51.266 38.2 51.866 37.636 52.322 36.916L56.858 38.356C56.21 39.34 55.358 40.216 54.302 40.984C53.246 41.728 52.094 42.316 50.846 42.748C49.622 43.156 48.374 43.36 47.102 43.36ZM60.1647 24.1H66.1407L66.7527 38.392C67.5447 37.048 68.2527 35.8 68.8767 34.648C69.5247 33.496 70.1007 32.368 70.6047 31.264C71.1087 30.136 71.5887 28.996 72.0447 27.844C72.5007 26.668 72.9327 25.42 73.3407 24.1H78.5607C77.6967 27.22 76.3887 30.364 74.6367 33.532C72.8847 36.7 70.7967 39.856 68.3727 43H62.3967L60.1647 24.1ZM85.7036 43.36C84.0716 43.36 82.6556 43.024 81.4556 42.352C80.2796 41.68 79.3676 40.744 78.7196 39.544C78.0956 38.32 77.7836 36.928 77.7836 35.368C77.7836 33.76 78.0956 32.26 78.7196 30.868C79.3436 29.476 80.2076 28.252 81.3116 27.196C82.4156 26.116 83.6996 25.276 85.1636 24.676C86.6516 24.052 88.2476 23.74 89.9516 23.74C91.3916 23.74 92.6276 23.956 93.6596 24.388C94.7156 24.796 95.5196 25.408 96.0716 26.224C96.6476 27.016 96.9356 27.988 96.9356 29.14C96.9356 31.18 95.9876 32.74 94.0916 33.82C92.2196 34.876 89.4236 35.404 85.7036 35.404C84.9836 35.404 84.1916 35.392 83.3276 35.368C82.4876 35.32 81.6116 35.248 80.6996 35.152L81.4196 31.624C82.1876 31.696 82.9196 31.756 83.6156 31.804C84.3116 31.828 85.0076 31.84 85.7036 31.84C87.1196 31.84 88.2356 31.768 89.0516 31.624C89.8916 31.456 90.4916 31.204 90.8516 30.868C91.2116 30.532 91.3916 30.124 91.3916 29.644C91.3916 29.26 91.2836 28.948 91.0676 28.708C90.8756 28.444 90.5996 28.24 90.2396 28.096C89.9036 27.952 89.4956 27.88 89.0156 27.88C88.2236 27.88 87.4916 28.084 86.8196 28.492C86.1476 28.9 85.5596 29.464 85.0556 30.184C84.5756 30.904 84.1916 31.732 83.9036 32.668C83.6396 33.58 83.5076 34.564 83.5076 35.62C83.5076 36.364 83.6156 37.012 83.8316 37.564C84.0476 38.092 84.3956 38.5 84.8756 38.788C85.3796 39.076 86.0036 39.22 86.7476 39.22C87.6116 39.22 88.4036 39.016 89.1236 38.608C89.8676 38.2 90.4676 37.636 90.9236 36.916L95.4596 38.356C94.8116 39.34 93.9596 40.216 92.9036 40.984C91.8476 41.728 90.6956 42.316 89.4476 42.748C88.2236 43.156 86.9756 43.36 85.7036 43.36ZM101.098 24.1H106.282L105.598 27.268C106.198 26.524 106.894 25.888 107.686 25.36C108.478 24.832 109.342 24.436 110.278 24.172C111.238 23.884 112.234 23.74 113.266 23.74C114.394 23.74 115.258 23.944 115.858 24.352C116.458 24.76 116.878 25.3 117.118 25.972C117.382 26.62 117.514 27.328 117.514 28.096C117.514 28.576 117.478 29.056 117.406 29.536C117.334 29.992 117.262 30.448 117.19 30.904L114.634 43H108.874L111.142 32.38C111.19 32.092 111.226 31.84 111.25 31.624C111.274 31.384 111.286 31.156 111.286 30.94C111.286 30.196 111.118 29.656 110.782 29.32C110.47 28.984 110.062 28.816 109.558 28.816C109.102 28.816 108.598 28.96 108.046 29.248C107.494 29.536 106.954 29.932 106.426 30.436C105.922 30.94 105.49 31.516 105.13 32.164L102.826 43H97.0658L101.098 24.1ZM122.367 24.1H128.127L124.095 43H118.335L122.367 24.1ZM123.915 16.72H129.675L128.559 21.94H122.799L123.915 16.72ZM132 24.1H137.292L136.464 27.916C137.376 26.644 138.384 25.648 139.488 24.928C140.616 24.208 141.72 23.848 142.8 23.848C143.064 23.848 143.244 23.848 143.34 23.848C143.46 23.848 143.556 23.86 143.628 23.884L142.548 29.032C141.252 29.032 140.028 29.26 138.876 29.716C137.724 30.148 136.812 30.796 136.14 31.66L133.728 43H127.968L132 24.1ZM157.147 43.36C155.755 43.36 154.555 43.036 153.547 42.388C152.563 41.716 151.795 40.804 151.243 39.652C150.715 38.476 150.451 37.156 150.451 35.692C150.451 34.084 150.727 32.56 151.279 31.12C151.831 29.68 152.587 28.42 153.547 27.34C154.507 26.236 155.599 25.36 156.823 24.712C158.071 24.064 159.379 23.74 160.747 23.74C161.971 23.74 163.015 24.064 163.879 24.712C164.767 25.336 165.367 26.164 165.679 27.196L166.327 24.208H172.123L169.459 36.52C169.435 36.664 169.411 36.796 169.387 36.916C169.387 37.036 169.387 37.156 169.387 37.276C169.387 37.828 169.687 38.116 170.287 38.14L169.279 43C168.751 43.096 168.283 43.168 167.875 43.216C167.467 43.264 167.119 43.288 166.831 43.288C165.895 43.288 165.151 43.108 164.599 42.748C164.047 42.364 163.771 41.74 163.771 40.876C163.771 40.78 163.771 40.684 163.771 40.588C163.771 40.492 163.783 40.384 163.807 40.264C163.831 40.144 163.855 40.012 163.879 39.868C162.991 41.044 161.947 41.92 160.747 42.496C159.571 43.072 158.371 43.36 157.147 43.36ZM159.739 38.5C160.099 38.5 160.459 38.44 160.819 38.32C161.203 38.176 161.575 37.996 161.935 37.78C162.295 37.564 162.643 37.288 162.979 36.952C163.315 36.616 163.615 36.256 163.879 35.872L164.707 31.912C164.635 31.264 164.443 30.7 164.131 30.22C163.843 29.74 163.471 29.356 163.015 29.068C162.559 28.78 162.079 28.636 161.575 28.636C160.903 28.636 160.267 28.804 159.667 29.14C159.067 29.476 158.527 29.932 158.047 30.508C157.591 31.084 157.219 31.744 156.931 32.488C156.667 33.208 156.535 33.964 156.535 34.756C156.535 35.476 156.655 36.124 156.895 36.7C157.159 37.252 157.531 37.696 158.011 38.032C158.491 38.344 159.067 38.5 159.739 38.5ZM177.875 43.36C174.923 43.36 173.447 41.848 173.447 38.824C173.447 38.416 173.471 38.008 173.519 37.6C173.591 37.168 173.675 36.7 173.771 36.196L176.363 24.1H182.087L179.783 34.936C179.663 35.464 179.603 35.932 179.603 36.34C179.603 37.78 180.203 38.5 181.403 38.5C181.859 38.5 182.315 38.416 182.771 38.248C183.227 38.056 183.707 37.756 184.211 37.348C184.715 36.94 185.207 36.412 185.687 35.764L188.171 24.1H193.931L191.303 36.52C191.279 36.664 191.255 36.796 191.231 36.916C191.207 37.036 191.195 37.156 191.195 37.276C191.195 37.828 191.507 38.116 192.131 38.14L191.087 43C190.559 43.096 190.091 43.168 189.683 43.216C189.275 43.264 188.927 43.288 188.639 43.288C187.703 43.288 186.947 43.108 186.371 42.748C185.819 42.388 185.543 41.8 185.543 40.984C185.543 40.888 185.555 40.792 185.579 40.696C185.603 40.576 185.627 40.432 185.651 40.264C185.675 40.096 185.699 39.916 185.723 39.724C184.643 40.972 183.431 41.896 182.087 42.496C180.767 43.072 179.363 43.36 177.875 43.36ZM209.768 43.36C208.232 43.36 206.768 43.108 205.376 42.604C204.008 42.076 202.904 41.32 202.064 40.336L204.836 36.808C205.772 37.6 206.708 38.212 207.644 38.644C208.604 39.052 209.54 39.256 210.452 39.256C210.98 39.256 211.412 39.184 211.748 39.04C212.108 38.896 212.372 38.692 212.54 38.428C212.708 38.164 212.792 37.852 212.792 37.492C212.792 37.06 212.588 36.712 212.18 36.448C211.772 36.16 211.088 35.872 210.128 35.584C208.808 35.152 207.74 34.744 206.924 34.36C206.108 33.952 205.496 33.484 205.088 32.956C204.704 32.428 204.512 31.78 204.512 31.012C204.512 29.62 204.896 28.384 205.664 27.304C206.456 26.224 207.512 25.36 208.832 24.712C210.152 24.064 211.616 23.74 213.224 23.74C214.592 23.74 215.816 23.932 216.896 24.316C218 24.7 219.008 25.396 219.92 26.404L216.968 29.86C216.104 29.116 215.324 28.588 214.628 28.276C213.932 27.94 213.224 27.772 212.504 27.772C212.024 27.772 211.604 27.844 211.244 27.988C210.884 28.132 210.608 28.336 210.416 28.6C210.224 28.864 210.128 29.188 210.128 29.572C210.128 30.004 210.32 30.34 210.704 30.58C211.088 30.82 211.772 31.084 212.756 31.372C214.124 31.756 215.228 32.176 216.068 32.632C216.932 33.088 217.568 33.604 217.976 34.18C218.384 34.756 218.588 35.464 218.588 36.304C218.588 37.672 218.216 38.896 217.472 39.976C216.752 41.032 215.732 41.86 214.412 42.46C213.092 43.06 211.544 43.36 209.768 43.36ZM224.039 24.1H229.799L225.767 43H220.007L224.039 24.1ZM225.587 16.72H231.347L230.231 21.94H224.471L225.587 16.72ZM231.656 39.796C231.656 39.556 231.668 39.316 231.692 39.076C231.716 38.836 231.752 38.584 231.8 38.32L233.888 28.456H231.62L232.592 24.1H234.824L236.12 18.088H241.88L240.584 24.1H244.22L243.284 28.456H239.648L237.992 36.34C237.968 36.436 237.944 36.544 237.92 36.664C237.92 36.76 237.92 36.856 237.92 36.952C237.92 37.36 238.028 37.66 238.244 37.852C238.484 38.02 238.784 38.104 239.144 38.104C239.408 38.104 239.684 38.068 239.972 37.996C240.26 37.924 240.548 37.84 240.836 37.744C241.148 37.648 241.436 37.54 241.7 37.42L241.772 41.992C241.196 42.232 240.572 42.46 239.9 42.676C239.252 42.892 238.58 43.06 237.884 43.18C237.212 43.3 236.54 43.36 235.868 43.36C234.668 43.36 233.66 43.084 232.844 42.532C232.052 41.98 231.656 41.068 231.656 39.796ZM252.239 43.36C250.607 43.36 249.191 43.024 247.991 42.352C246.815 41.68 245.903 40.744 245.255 39.544C244.631 38.32 244.319 36.928 244.319 35.368C244.319 33.76 244.631 32.26 245.255 30.868C245.879 29.476 246.743 28.252 247.847 27.196C248.951 26.116 250.235 25.276 251.699 24.676C253.187 24.052 254.783 23.74 256.487 23.74C257.927 23.74 259.163 23.956 260.195 24.388C261.251 24.796 262.055 25.408 262.607 26.224C263.183 27.016 263.471 27.988 263.471 29.14C263.471 31.18 262.523 32.74 260.627 33.82C258.755 34.876 255.959 35.404 252.239 35.404C251.519 35.404 250.727 35.392 249.863 35.368C249.023 35.32 248.147 35.248 247.235 35.152L247.955 31.624C248.723 31.696 249.455 31.756 250.151 31.804C250.847 31.828 251.543 31.84 252.239 31.84C253.655 31.84 254.771 31.768 255.587 31.624C256.427 31.456 257.027 31.204 257.387 30.868C257.747 30.532 257.927 30.124 257.927 29.644C257.927 29.26 257.819 28.948 257.603 28.708C257.411 28.444 257.135 28.24 256.775 28.096C256.439 27.952 256.031 27.88 255.551 27.88C254.759 27.88 254.027 28.084 253.355 28.492C252.683 28.9 252.095 29.464 251.591 30.184C251.111 30.904 250.727 31.732 250.439 32.668C250.175 33.58 250.043 34.564 250.043 35.62C250.043 36.364 250.151 37.012 250.367 37.564C250.583 38.092 250.931 38.5 251.411 38.788C251.915 39.076 252.539 39.22 253.283 39.22C254.147 39.22 254.939 39.016 255.659 38.608C256.403 38.2 257.003 37.636 257.459 36.916L261.995 38.356C261.347 39.34 260.495 40.216 259.439 40.984C258.383 41.728 257.231 42.316 255.983 42.748C254.759 43.156 253.511 43.36 252.239 43.36Z" fill="url(#paint1_linear_357_135)"/>
<defs>
<linearGradient id="paint0_linear_357_135" x1="-4.96993e-10" y1="32.5" x2="226.333" y2="32.5718" gradientUnits="userSpaceOnUse">
<stop stop-color="#FD9F8A"/>
<stop offset="1" stop-color="#A4EBE7"/>
</linearGradient>
<linearGradient id="paint1_linear_357_135" x1="5" y1="32.5" x2="223.25" y2="32.6316" gradientUnits="userSpaceOnUse">
<stop stop-color="#FD9F8A"/>
<stop offset="1" stop-color="#A4EBE7"/>
</linearGradient>
</defs>
</svg>
